<svg width="33" height="72" viewBox="0 0 33 72" fill="none" xmlns="http://www.w3.org/2000/svg">
<path fill-rule="evenodd" clip-rule="evenodd" d="M10.9878 41.3506L10.9899 41.3443C11.7497 39.0691 13.0968 36.4979 15.0043 33.6366C17.1765 30.3842 18.6268 27.6185 19.387 25.3316C20.1502 23.0359 20.5333 20.6125 20.5333 18.0568C20.5333 15.8075 20.1139 14.3606 19.4319 13.5368L19.4248 13.5283L19.4181 13.5196C18.732 12.6391 17.7089 12.1542 16.2262 12.1542C14.7434 12.1542 13.7204 12.6391 13.0343 13.5196L13.0275 13.5283L13.0205 13.5368C12.3384 14.3606 11.919 15.8075 11.919 18.0568V26.1421H1V18.7321C1 13.1542 2.27268 8.76608 4.92572 5.68668C7.59183 2.52728 11.4609 1 16.4087 1C21.4123 1 25.3124 2.52422 27.9802 5.6833C30.6957 8.76232 32 13.1519 32 18.7321C32 21.7844 31.4662 24.7388 30.3999 27.5907C29.3938 30.3801 27.6493 33.4962 25.1941 36.9346C23.2628 39.6777 21.9298 41.9397 21.1693 43.7307C20.4738 45.4476 20.134 47.1136 20.134 48.7339V53.1533H9.94516V48.348C9.94516 45.8926 10.2907 43.5608 10.9858 41.3568L10.9878 41.3506ZM20.5162 43.4281C21.3073 41.563 22.6764 39.2478 24.6237 36.4823C27.0577 33.0738 28.7616 30.0189 29.7352 27.3178C30.7697 24.5524 31.2869 21.6905 31.2869 18.7321C31.2869 13.2656 30.009 9.08527 27.4533 6.19121C24.9583 3.23285 21.2768 1.75366 16.4087 1.75366C11.6015 1.75366 7.95037 3.23285 5.45547 6.19121C2.96056 9.08527 1.7131 13.2656 1.7131 18.7321V25.3885H11.2059V18.0568C11.2059 15.7416 11.6319 14.0695 12.4838 13.0405C13.3357 11.9472 14.5832 11.4005 16.2262 11.4005C17.8692 11.4005 19.1166 11.9472 19.9685 13.0405C20.8205 14.0695 21.2464 15.7416 21.2464 18.0568C21.2464 20.6937 20.8509 23.2018 20.0598 25.5814C19.2687 27.961 17.7779 30.7907 15.5872 34.0706C13.7008 36.9004 12.3925 39.4086 11.6623 41.5952C10.9929 43.7175 10.6583 45.9684 10.6583 48.348V52.3997H19.4209V48.7339C19.4209 46.9974 19.786 45.2288 20.5162 43.4281ZM9.48877 59.267H20.5904V71H9.48877V59.267ZM10.2019 60.0207V70.2463H19.8773V60.0207H10.2019Z" fill="#11B44F" stroke="#11B44F"/>
</svg>
