<svg width="28" height="28" viewBox="0 0 28 28" fill="none" xmlns="http://www.w3.org/2000/svg">
<rect width="28" height="28" rx="14" fill="black"/>
<path d="M20.493 8.1824C22.6011 11.2334 23.6423 14.6748 23.2531 18.6366C23.2514 18.6534 23.2426 18.6688 23.2286 18.6789C21.6321 19.8328 20.0853 20.533 18.5603 20.9974C18.5484 21.001 18.5357 21.0008 18.5239 20.9969C18.5122 20.993 18.5019 20.9855 18.4947 20.9756C18.1424 20.4931 17.8222 19.9844 17.5418 19.4501C17.5257 19.4187 17.5404 19.3808 17.5735 19.3684C18.0819 19.1798 18.5654 18.9538 19.0304 18.6862C19.0671 18.6651 19.0694 18.6134 19.0356 18.5886C18.9369 18.5165 18.8391 18.4407 18.7455 18.3649C18.728 18.3509 18.7045 18.3482 18.6846 18.3576C15.6655 19.7299 12.3583 19.7299 9.30347 18.3576C9.28364 18.3489 9.26007 18.3518 9.24304 18.3656C9.14971 18.4414 9.05171 18.5165 8.95394 18.5886C8.92011 18.6134 8.92291 18.6651 8.95977 18.6862C9.42481 18.9488 9.90827 19.1798 10.416 19.3693C10.4489 19.3817 10.4645 19.4187 10.4482 19.4501C10.1738 19.985 9.85367 20.4938 9.4948 20.9763C9.47917 20.9958 9.4535 21.0048 9.42924 20.9974C7.91141 20.533 6.36464 19.8328 4.76818 18.6789C4.75488 18.6688 4.74531 18.6527 4.74391 18.636C4.41865 15.209 5.08154 11.7391 7.50144 8.18171C7.50727 8.1723 7.51614 8.16495 7.52641 8.16058C8.71711 7.62269 9.99274 7.22697 11.326 7.00097C11.3503 6.99729 11.3745 7.00832 11.3871 7.02945C11.5519 7.31654 11.7402 7.6847 11.8676 7.98557C13.2729 7.77428 14.7002 7.77428 16.135 7.98557C16.2624 7.69113 16.4442 7.31654 16.6082 7.02945C16.614 7.01897 16.6231 7.01057 16.6341 7.00545C16.645 7.00034 16.6574 6.99877 16.6693 7.00097C18.0033 7.22766 19.2789 7.62338 20.4687 8.16058C20.4792 8.16495 20.4878 8.1723 20.493 8.1824ZM12.582 14.6982C12.5967 13.6851 11.8463 12.8468 10.9044 12.8468C9.9701 12.8468 9.22694 13.6778 9.22694 14.6982C9.22694 15.7184 9.9848 16.5494 10.9044 16.5494C11.8389 16.5494 12.582 15.7184 12.582 14.6982ZM18.7845 14.6982C18.7992 13.6851 18.0488 12.8468 17.1071 12.8468C16.1726 12.8468 15.4294 13.6778 15.4294 14.6982C15.4294 15.7184 16.1873 16.5494 17.1071 16.5494C18.0488 16.5494 18.7845 15.7184 18.7845 14.6982Z" fill="white"/>
</svg>
