<svg width="28" height="28" viewBox="0 0 28 28" fill="none" xmlns="http://www.w3.org/2000/svg">
<rect width="28" height="28" rx="14" fill="black"/>
<path d="M15.008 14.1398C15.008 16.5349 13.0321 18.4798 10.5842 18.4798C8.13638 18.4798 6.1604 16.5349 6.1604 14.1398C6.1604 11.7447 8.13638 9.7998 10.5842 9.7998C13.0321 9.7998 15.008 11.7447 15.008 14.1398ZM19.8546 14.1398C19.8546 16.3912 18.8617 18.2211 17.6427 18.2211C16.4237 18.2211 15.4308 16.3912 15.4308 14.1398C15.4308 11.8884 16.4237 10.0585 17.6427 10.0585C18.8617 10.0585 19.8546 11.8788 19.8546 14.1398ZM21.8404 14.1398C21.8404 16.1613 21.4963 17.7996 21.0638 17.7996C20.6312 17.7996 20.2871 16.1613 20.2871 14.1398C20.2871 12.1183 20.6312 10.48 21.0638 10.48C21.4963 10.48 21.8404 12.1183 21.8404 14.1398Z" fill="white"/>
</svg>
