<svg width="19" height="19" viewBox="0 0 19 19" fill="none" xmlns="http://www.w3.org/2000/svg">
<path fill-rule="evenodd" clip-rule="evenodd" d="M13.6001 7.8001C13.6001 11.0033 11.0033 13.6001 7.8001 13.6001C4.59685 13.6001 2.0001 11.0033 2.0001 7.8001C2.0001 4.59685 4.59685 2.0001 7.8001 2.0001C11.0033 2.0001 13.6001 4.59685 13.6001 7.8001ZM12.3723 13.3623C11.1288 14.3856 9.53623 15.0001 7.8001 15.0001C3.82365 15.0001 0.600098 11.7765 0.600098 7.8001C0.600098 3.82365 3.82365 0.600098 7.8001 0.600098C11.7765 0.600098 15.0001 3.82365 15.0001 7.8001C15.0001 9.53623 14.3856 11.1288 13.3623 12.3723L17.8951 16.9051C18.1684 17.1785 18.1684 17.6217 17.8951 17.8951C17.6217 18.1684 17.1785 18.1684 16.9051 17.8951L12.3723 13.3623Z" fill="black"/>
</svg>
