<svg width="28" height="28" viewBox="0 0 28 28" fill="none" xmlns="http://www.w3.org/2000/svg">
<rect width="28" height="28" rx="14" fill="black"/>
<path d="M7.85832 13.226C7.85832 13.226 14.0502 10.5918 16.1976 9.66423C17.0208 9.29323 19.8125 8.10593 19.8125 8.10593C19.8125 8.10593 21.101 7.58653 20.9936 8.84798C20.9578 9.36743 20.6715 11.1854 20.3852 13.1518C19.9557 15.9345 19.4904 18.9769 19.4904 18.9769C19.4904 18.9769 19.4188 19.8302 18.8104 19.9786C18.202 20.127 17.1998 19.4592 17.0208 19.3108C16.8776 19.1995 14.3365 17.5299 13.4059 16.7136C13.1554 16.491 12.8691 16.0458 13.4417 15.5264C14.7302 14.302 16.2692 12.7808 17.1998 11.8162C17.6293 11.3709 18.0587 10.3321 16.2692 11.5935C13.7281 13.4116 11.2227 15.1183 11.2227 15.1183C11.2227 15.1183 10.65 15.4893 9.57629 15.1553C8.50252 14.8215 7.24983 14.3762 7.24983 14.3762C7.24983 14.3762 6.39089 13.8197 7.85832 13.226Z" fill="white"/>
</svg>
