<svg width="28" height="28" viewBox="0 0 28 28" fill="none" xmlns="http://www.w3.org/2000/svg">
<rect width="28" height="28" rx="14" fill="black"/>
<path d="M21.9288 8.68179C21.4113 8.91822 20.8672 9.08285 20.3099 9.17163C20.5705 9.12423 20.9538 8.62648 21.1064 8.42501C21.3382 8.12112 21.5148 7.7742 21.6274 7.40187C21.6274 7.37422 21.6534 7.33471 21.6274 7.31496C21.6143 7.30736 21.5995 7.30337 21.5846 7.30337C21.5696 7.30337 21.5549 7.30736 21.5418 7.31496C20.9367 7.66276 20.2928 7.92821 19.6252 8.10503C19.6019 8.11258 19.5771 8.11326 19.5535 8.10699C19.5299 8.10073 19.5084 8.08776 19.4912 8.06948C19.4392 8.0038 19.3833 7.94178 19.3237 7.88381C19.0514 7.62485 18.7425 7.4129 18.4082 7.25571C17.957 7.05921 17.4696 6.97411 16.9828 7.00683C16.5105 7.0385 16.0494 7.17296 15.6282 7.40187C15.2134 7.64321 14.8488 7.97107 14.5564 8.36576C14.2488 8.77199 14.0267 9.24344 13.9051 9.74838C13.8048 10.2287 13.7934 10.7251 13.8716 11.21C13.8716 11.293 13.8716 11.3048 13.8046 11.293C11.1511 10.8782 8.97399 9.87874 7.19507 7.7337C7.11691 7.63889 7.07598 7.63889 7.01271 7.7337C6.23862 8.98201 6.6145 10.9572 7.58211 11.9329C7.71237 12.0633 7.84634 12.1897 7.98777 12.3082C7.54412 12.2748 7.11131 12.1472 6.71498 11.9329C6.64055 11.8816 6.59961 11.9092 6.59589 12.004C6.58534 12.1355 6.58534 12.2676 6.59589 12.3991C6.67354 13.029 6.90742 13.6257 7.27359 14.1282C7.63977 14.6307 8.12511 15.021 8.67998 15.2591C8.81525 15.3206 8.95619 15.367 9.10052 15.3974C8.68981 15.4832 8.26859 15.4966 7.85379 15.4369C7.76447 15.4171 7.73098 15.4685 7.76447 15.5594C8.31154 17.1395 9.49873 17.6214 10.3696 17.8901C10.4887 17.9098 10.6078 17.9098 10.7417 17.9414C10.7417 17.9414 10.7417 17.9414 10.7194 17.9651C10.4626 18.4629 9.4243 18.7986 8.94794 18.9725C8.07845 19.304 7.15142 19.4307 6.23118 19.3438C6.08603 19.3201 6.05254 19.324 6.01532 19.3438C5.97811 19.3635 6.01532 19.407 6.05626 19.4465C6.24234 19.5769 6.42842 19.6914 6.62194 19.802C7.19806 20.1356 7.80713 20.4006 8.43808 20.5921C11.7056 21.5481 15.3826 20.8449 17.8351 18.2574C19.7629 16.227 20.4402 13.4262 20.4402 10.6214C20.4402 10.5148 20.563 10.4515 20.6337 10.3962C21.1214 9.99287 21.5514 9.51649 21.9102 8.98201C21.9724 8.90234 22.0042 8.8009 21.9995 8.69759C21.9995 8.63833 21.9995 8.65018 21.9288 8.68179Z" fill="white"/>
</svg>
