<svg width="14" height="12" viewBox="0 0 14 12" fill="none" xmlns="http://www.w3.org/2000/svg">
<path d="M0.858316 5.22603C0.858316 5.22603 7.05018 2.5918 9.19762 1.66423C10.0208 1.29323 12.8125 0.105929 12.8125 0.105929C12.8125 0.105929 14.101 -0.41347 13.9936 0.847979C13.9578 1.36743 13.6715 3.1854 13.3852 5.15183C12.9557 7.9345 12.4904 10.9769 12.4904 10.9769C12.4904 10.9769 12.4188 11.8302 11.8104 11.9786C11.202 12.127 10.1998 11.4592 10.0208 11.3108C9.87764 11.1995 7.33649 9.52988 6.40593 8.71363C6.15538 8.49103 5.86907 8.04583 6.44169 7.52638C7.7302 6.302 9.2692 4.78083 10.1998 3.81618C10.6293 3.37093 11.0587 2.33208 9.2692 3.59353C6.72806 5.41155 4.22268 7.11825 4.22268 7.11825C4.22268 7.11825 3.65001 7.48925 2.57629 7.15533C1.50252 6.82145 0.249829 6.3762 0.249829 6.3762C0.249829 6.3762 -0.609107 5.81968 0.858316 5.22603Z" fill="white"/>
</svg>
