<svg width="16" height="10" viewBox="0 0 16 10" fill="none" xmlns="http://www.w3.org/2000/svg">
<path d="M9.00805 5.1398C9.00805 7.53495 7.03207 9.4798 4.58422 9.4798C2.13638 9.4798 0.1604 7.53495 0.1604 5.1398C0.1604 2.74466 2.13638 0.799805 4.58422 0.799805C7.03207 0.799805 9.00805 2.74466 9.00805 5.1398ZM13.8546 5.1398C13.8546 7.39124 12.8617 9.22113 11.6427 9.22113C10.4237 9.22113 9.43077 7.39124 9.43077 5.1398C9.43077 2.88837 10.4237 1.05848 11.6427 1.05848C12.8617 1.05848 13.8546 2.87879 13.8546 5.1398ZM15.8404 5.1398C15.8404 7.16131 15.4963 8.79959 15.0638 8.79959C14.6312 8.79959 14.2871 7.16131 14.2871 5.1398C14.2871 3.1183 14.6312 1.48002 15.0638 1.48002C15.4963 1.48002 15.8404 3.1183 15.8404 5.1398Z" fill="white"/>
</svg>
