<svg width="20" height="14" viewBox="0 0 20 14" fill="none" xmlns="http://www.w3.org/2000/svg">
<path d="M16.4929 1.1824C18.6011 4.23337 19.6422 7.67479 19.253 11.6366C19.2514 11.6534 19.2425 11.6688 19.2285 11.6789C17.632 12.8328 16.0853 13.533 14.5602 13.9974C14.5483 14.001 14.5356 14.0008 14.5239 13.9969C14.5121 13.993 14.5019 13.9855 14.4946 13.9756C14.1423 13.4931 13.8222 12.9844 13.5417 12.4501C13.5256 12.4187 13.5403 12.3808 13.5734 12.3684C14.0819 12.1798 14.5653 11.9538 15.0304 11.6862C15.067 11.6651 15.0693 11.6134 15.0355 11.5886C14.9368 11.5165 14.839 11.4407 14.7455 11.3649C14.728 11.3509 14.7044 11.3482 14.6846 11.3576C11.6655 12.7299 8.35821 12.7299 5.30341 11.3576C5.28358 11.3489 5.26001 11.3518 5.24298 11.3656C5.14964 11.4414 5.05164 11.5165 4.95388 11.5886C4.92004 11.6134 4.92284 11.6651 4.95971 11.6862C5.42474 11.9488 5.90821 12.1798 6.41594 12.3693C6.44884 12.3817 6.46448 12.4187 6.44814 12.4501C6.17374 12.985 5.85361 13.4938 5.49474 13.9763C5.47911 13.9958 5.45344 14.0048 5.42918 13.9974C3.91135 13.533 2.36458 12.8328 0.768118 11.6789C0.754818 11.6688 0.745251 11.6527 0.743851 11.636C0.418585 8.20901 1.08148 4.73911 3.50138 1.18171C3.50721 1.1723 3.51608 1.16495 3.52635 1.16058C4.71704 0.622692 5.99268 0.226966 7.32594 0.000968189C7.35021 -0.00270657 7.37447 0.00831771 7.38707 0.0294476C7.55181 0.316538 7.74011 0.684703 7.86751 0.985574C9.27287 0.774276 10.7002 0.774276 12.1349 0.985574C12.2623 0.691134 12.4441 0.316538 12.6081 0.0294476C12.614 0.0189653 12.623 0.0105674 12.634 0.00545295C12.645 0.000338472 12.6573 -0.00123114 12.6693 0.000968189C14.0032 0.227655 15.2789 0.623381 16.4686 1.16058C16.4791 1.16495 16.4878 1.1723 16.4929 1.1824V1.1824ZM8.58197 7.69822C8.59667 6.68513 7.84627 5.84682 6.90431 5.84682C5.97004 5.84682 5.22688 6.67778 5.22688 7.69822C5.22688 8.71842 5.98474 9.54938 6.90431 9.54938C7.83881 9.54938 8.58197 8.71842 8.58197 7.69822V7.69822ZM14.7844 7.69822C14.7991 6.68513 14.0487 5.84682 13.107 5.84682C12.1725 5.84682 11.4293 6.67778 11.4293 7.69822C11.4293 8.71842 12.1872 9.54938 13.107 9.54938C14.0487 9.54938 14.7844 8.71842 14.7844 7.69822V7.69822Z" fill="white"/>
</svg>
